<svg xmlns="http://www.w3.org/2000/svg"><symbol id="icon" viewBox="0 0 24 24">

                  <path fill="#EA4335" d="M12 10.2v3.9h5.4c-.2 1.3-1.5 3.9-5.4 3.9-3.2 0-5.9-2.7-5.9-6s2.7-6 5.9-6c1.8 0 3 .8 3.7 1.5l2.5-2.4C16.7 3.7 14.6 3 12 3 7 3 3 7 3 12s4 9 9 9c5.2 0 8.6-3.6 8.6-8.7 0-.6-.1-1.1-.2-1.6H12z" />
                  <path fill="#34A853" d="M3 12c0 1.8.7 3.4 1.8 4.8l3-2.4c-.4-.7-.7-1.5-.7-2.4s.2-1.7.7-2.4l-3-2.4A8.9 8.9 0 0 0 3 12z" />
                  <path fill="#FBBC05" d="M12 21c2.4 0 4.4-.8 5.9-2.2l-2.8-2.2c-.8.6-1.8.9-3.1.9-2.5 0-4.6-1.7-5.3-4l-3 2.3C5.2 18.8 8.3 21 12 21z" />
                  <path fill="#4285F4" d="M20.6 12.3c0-.6-.1-1.1-.2-1.6H12v3.9h4.8c-.2 1-.8 1.9-1.7 2.5l2.8 2.2c1.7-1.6 2.7-4 2.7-7z" />
                
  </symbol>
  </svg>