<svg xmlns="http://www.w3.org/2000/svg"><symbol id="icon" viewBox="0 0 24 24">

                  <path d="M3 3l18 18" fill="none" stroke="currentColor" stroke-width="1.8" stroke-linecap="round" />
                  <path d="M10.6 10.7A3 3 0 0 0 12 16a3 3 0 0 0 2.1-.9M9.9 5.2A10.7 10.7 0 0 1 12 5c4.8 0 8.8 2.9 10 7-0.5 1.7-1.6 3.3-3 4.5M6.1 6.7C4 8 2.5 9.8 2 12c1.2 4.1 5.2 7 10 7 1.2 0 2.4-.2 3.5-.6" fill="none" stroke="currentColor" stroke-width="1.8" stroke-linecap="round" stroke-linejoin="round" />
                
  </symbol>
  </svg>