<svg xmlns="http://www.w3.org/2000/svg"><symbol id="icon" viewBox="0 0 24 24">

                  <path fill="currentColor" d="M16.7 12.7c0-2.3 1.9-3.4 2-3.5-1.1-1.6-2.8-1.8-3.4-1.8-1.4-.2-2.7.8-3.4.8-.7 0-1.8-.8-2.9-.7-1.5 0-2.9.9-3.7 2.2-1.6 2.8-.4 6.8 1.2 9 0.8 1.1 1.7 2.3 2.9 2.2 1.2-.1 1.6-.7 3-.7s1.8.7 3 .7c1.3 0 2.1-1.1 2.9-2.2.9-1.3 1.3-2.6 1.3-2.7 0 0-2.5-1-2.5-3.3zm-2.3-6.8c.6-.8 1-1.8.9-2.9-.9 0-2.1.6-2.7 1.4-.6.7-1.1 1.8-.9 2.8 1 .1 2-.5 2.7-1.3z" />
                
  </symbol>
  </svg>